<svg enable-background="new 0 0 49 44" height="44" viewBox="0 0 49 44" width="49" xmlns="http://www.w3.org/2000/svg" xmlns:xlink="http://www.w3.org/1999/xlink"><clipPath id="a"><path d="m3.1.6h42.7v42.8h-42.7z"/></clipPath><clipPath id="b"><path d="m3.1.6h42.7v42.8h-42.7z"/></clipPath><path d="m43.5 39.1h-38.5c-1 0-1.9.9-1.9 1.9 0 1.1.9 1.9 1.9 1.9h38.5c1.1 0 1.9-.9 1.9-1.9.1-1-.8-1.9-1.9-1.9z" fill="#e5e5e5"/><g fill="#fff"><path clip-path="url(#a)" d="m7.4 34.1c-1.1 0-1.9.9-1.9 1.9 0 1.1.9 1.9 1.9 1.9h33.7c1.1 0 1.9-.9 1.9-1.9 0-1.1-.9-1.9-1.9-1.9h-.5v-17.3h.5c.5 0 1-.4 1-1 0-.5-.4-1-1-1h-33.7c-.5 0-1 .4-1 1 0 .5.4 1 1 1h.5v17.3zm29.4-17.3v17.3h-5.8v-17.3zm-9.6 0v17.3h-5.8v-17.3zm-15.4 0h5.8v17.3h-5.8z"/><path clip-path="url(#b)" d="m5 13.1h38.5c1.1 0 1.9-.9 1.9-1.9 0-.8-.5-1.6-1.3-1.8l-19-8.6c-.5-.2-1.1-.2-1.6 0l-19.3 8.6c-.8.4-1.2 1.3-1 2.2.1.9.9 1.5 1.8 1.5z"/></g></svg>