<?xml version="1.0" encoding="utf-8"?>
<!-- Generator: Adobe Illustrator 24.2.3, SVG Export Plug-In . SVG Version: 6.00 Build 0)  -->
<svg version="1.1" id="Capa_1" xmlns="http://www.w3.org/2000/svg" xmlns:xlink="http://www.w3.org/1999/xlink" x="0px" y="0px"
	 viewBox="0 0 652 99" style="enable-background:new 0 0 652 99;" xml:space="preserve">
<style type="text/css">
	.st0{fill:#FFFFFF;}
</style>
<path class="st0" d="M238.4,83.2h25.3v-3.3h-5.4c-0.2,0-0.7-0.1-1.3-0.3c-0.8-0.2-1.5-0.5-2.2-0.9c-0.8-0.8-1.1-1.7-1.1-3.6V18.5
	l21.8,64.7h7.2l22.1-64.8v58c0,0.9-0.4,1.8-1.2,2.3c-0.6,0.5-2,1-3.4,1.2h-5.6v3.3h35.7v-3.3H325c-3.2,0-5-1.8-5-4.7V21.7
	c0-2.1,0.2-2.8,1.3-3.5c0.6-0.6,2-1.1,3.6-1.2h5.6v-3.5h-29.1l-16.9,49.4L268,13.5h-29.4V17h5.3c2.9,0,4.8,1.8,4.8,4.7v51.6l0.1,1.9
	c0,2.8-2.1,4.7-5,4.7h-5.3L238.4,83.2z M331.6,16.6h5.5c0.2,0,0.8,0.2,1.4,0.4c0.9,0.2,1.7,0.5,2.1,0.9c0.8,0.7,1.1,1.4,1.1,2.5
	v44.3c0,8,2.1,12.5,7.2,15.3c4.5,2.8,11.9,4.5,19,4.5c8,0,16-2.3,19.9-5.6c2-1.8,3.7-4.5,4.5-7.6c0.8-2.6,1.2-5.9,1.2-9.4V21.6
	c0-2.9,2.1-4.8,5.1-4.8h5.4v-3.2h-25.5v3.2h5.4c2.7,0,4.6,2,4.6,4.8v40.8c0,11-4.6,15.6-16,15.6c-7.6,0-13.2-2.6-14.9-7.2
	c-0.6-1.5-0.8-3.4-0.8-7.6V21.6c0-2.8,1.9-4.8,4.9-4.8h5.3v-3.2h-35.4C331.6,13.4,331.6,16.6,331.6,16.6L331.6,16.6z M405.4,83.2
	H431v-3.3h-5.5c-0.1,0-0.7-0.1-1.5-0.2c-0.9-0.3-1.7-0.6-2.3-1c-0.9-0.8-1.2-1.6-1.2-3.6V27.5L456,83.2h10.7V20.3
	c0-1.5,1.2-2.6,3.3-3.2c0.6-0.1,1.3-0.3,1.3-0.3h5.4v-3.4h-25v3.4h5.3c3,0,4.9,1.9,4.9,4.8v43.2L429,13.4h-23.8v3.5h5.3
	c2.9,0,4.9,1.8,4.9,4.7v53.6c0,2.8-2.1,4.7-5,4.7h-5.3L405.4,83.2z"/>
<path class="st0" d="M478.8,83.2h37.6c19.5,0,33.5-15,33.5-35.8c0-12-5.5-22.7-14.9-28.8c-5.6-3.6-11.7-5.2-19.7-5.2h-36.5v3.4h5.4
	c2.9,0,4.8,1.8,4.8,4.8v53.5c0,1.8-0.4,2.9-1.3,3.7c-0.6,0.4-2.1,0.9-3.5,1.3h-5.5L478.8,83.2z M504.1,75.7v-55
	c0-3.3,0.8-4.2,3.8-4.2h8.9c4.9,0,9.7,2.4,12.2,6.3c1.8,2.8,3,6.6,3.8,12.1c0.5,3.9,0.8,9.6,0.8,13.8c0,21.6-5.6,31.6-17.8,31.6H508
	C505,80.2,504.1,79.1,504.1,75.7L504.1,75.7z M556.3,48.4c0,21.4,13.1,35.8,32.5,35.8c19.5,0,32.6-14.4,32.6-35.8
	c0-10.1-3-18.9-8.8-25.7c-5.8-6.9-13.6-10.3-23.8-10.3c-10.3,0-17.7,3.3-23.9,10.3C559.3,29.2,556.3,38.3,556.3,48.4z M574.4,28.1
	c1.9-7.6,6.9-11.6,14.4-11.6c7.6,0,12.4,4,14.5,11.6c1.3,4.9,1.7,10.2,1.7,20.2s-0.4,15.1-1.7,20.1c-2,7.5-7,11.6-14.5,11.6
	c-7.6,0-12.4-4.1-14.4-11.6c-1.5-4.9-1.9-10.1-1.9-20.1C572.5,38.2,573,33.1,574.4,28.1z"/>
<path class="st0" d="M21.5,83.2h62.8l1.9-22.5h-3.7c-1.4,12.5-9.4,19.4-22.6,19.4h-9.7c-2.6,0-3.7-1.3-3.7-4.1V46.8h5
	c5.1,0,9.7,1.2,11.7,3c2,1.9,3.5,5.5,3.5,8.8c0,0.6,0,1.3-0.1,1.9h3.6V30l-3.6-0.1v0.8c0,8.4-5.3,13-15.1,13h-5V19.9
	c0-2.6,0.8-3.4,3.2-3.4h9.7c7.7,0,11.6,1.2,15.8,4.6c3.1,2.5,5.5,6.3,6.1,9.7c0.2,0.9,0.3,2,0.4,3.5h4.1l-1.6-20.9H21.5v3.4h5.4
	c2.8,0,4.7,1.7,4.7,4.7v53.8c0,2.8-1.9,4.6-4.8,4.6h-5.3L21.5,83.2z M87.2,16.8h5.3c3,0,4.9,1.8,4.9,4.8v53.5c0,1.9-0.4,2.9-1.2,3.7
	c-0.7,0.5-2.1,1-3.5,1.2h-5.6v3.3h60l1.4-27.5h-4c-2.3,15.5-9.8,24.4-20.8,24.4H116c-2.6,0-3.8-1.3-3.8-4.2V21.7
	c0-2.9,1.9-4.8,4.8-4.8h5.4v-3.4H87.2C87.2,13.4,87.2,16.8,87.2,16.8z"/>
<path class="st0" d="M230.6,64.9c2.4-4.9,3.7-10.2,3.9-15.6H197v15.9h33.4L230.6,64.9z M192.9,28.3h-33.1c-2.9,5.2-4.5,11-4.9,16.9
	h38L192.9,28.3z M197.1,28.3v16.9h37.5c-0.3-5.9-2-11.7-4.9-16.9H197.1z M192.9,49.3h-38c0.2,5.5,1.6,10.9,4.1,15.9h33.9L192.9,49.3
	z M192.9,69.4h-31.5c7,10.7,18.7,17.3,31.5,17.9V69.4z M197.1,24.1H227c-7-9.7-18-15.7-29.9-16.4V24.1z M197.1,69.4v17.9
	c12.6-0.7,24.1-7.4,31-17.9H197.1z M192.9,24.1V7.7c-12.1,0.5-23.3,6.6-30.4,16.4H192.9z"/>
</svg>
