<svg enable-background="new 0 0 652 99" viewBox="0 0 652 99" xmlns="http://www.w3.org/2000/svg"><path d="m238.4 83.2h25.3v-3.3h-5.4c-.2 0-.7-.1-1.3-.3-.8-.2-1.5-.5-2.2-.9-.8-.8-1.1-1.7-1.1-3.6v-56.6l21.8 64.7h7.2l22.1-64.8v58c0 .9-.4 1.8-1.2 2.3-.6.5-2 1-3.4 1.2h-5.6v3.3h35.7v-3.3h-5.3c-3.2 0-5-1.8-5-4.7v-53.5c0-2.1.2-2.8 1.3-3.5.6-.6 2-1.1 3.6-1.2h5.6v-3.5h-29.1l-16.9 49.4-16.5-49.4h-29.4v3.5h5.3c2.9 0 4.8 1.8 4.8 4.7v51.6l.1 1.9c0 2.8-2.1 4.7-5 4.7h-5.3zm93.2-66.6h5.5c.2 0 .8.2 1.4.4.9.2 1.7.5 2.1.9.8.7 1.1 1.4 1.1 2.5v44.3c0 8 2.1 12.5 7.2 15.3 4.5 2.8 11.9 4.5 19 4.5 8 0 16-2.3 19.9-5.6 2-1.8 3.7-4.5 4.5-7.6.8-2.6 1.2-5.9 1.2-9.4v-40.3c0-2.9 2.1-4.8 5.1-4.8h5.4v-3.2h-25.5v3.2h5.4c2.7 0 4.6 2 4.6 4.8v40.8c0 11-4.6 15.6-16 15.6-7.6 0-13.2-2.6-14.9-7.2-.6-1.5-.8-3.4-.8-7.6v-41.6c0-2.8 1.9-4.8 4.9-4.8h5.3v-3.2h-35.4c0-.2 0 3 0 3zm73.8 66.6h25.6v-3.3h-5.5c-.1 0-.7-.1-1.5-.2-.9-.3-1.7-.6-2.3-1-.9-.8-1.2-1.6-1.2-3.6v-47.6l35.5 55.7h10.7v-62.9c0-1.5 1.2-2.6 3.3-3.2.6-.1 1.3-.3 1.3-.3h5.4v-3.4h-25v3.4h5.3c3 0 4.9 1.9 4.9 4.8v43.2l-32.9-51.4h-23.8v3.5h5.3c2.9 0 4.9 1.8 4.9 4.7v53.6c0 2.8-2.1 4.7-5 4.7h-5.3z"/><path d="m478.8 83.2h37.6c19.5 0 33.5-15 33.5-35.8 0-12-5.5-22.7-14.9-28.8-5.6-3.6-11.7-5.2-19.7-5.2h-36.5v3.4h5.4c2.9 0 4.8 1.8 4.8 4.8v53.5c0 1.8-.4 2.9-1.3 3.7-.6.4-2.1.9-3.5 1.3h-5.5zm25.3-7.5v-55c0-3.3.8-4.2 3.8-4.2h8.9c4.9 0 9.7 2.4 12.2 6.3 1.8 2.8 3 6.6 3.8 12.1.5 3.9.8 9.6.8 13.8 0 21.6-5.6 31.6-17.8 31.6h-7.8c-3-.1-3.9-1.2-3.9-4.6zm52.2-27.3c0 21.4 13.1 35.8 32.5 35.8 19.5 0 32.6-14.4 32.6-35.8 0-10.1-3-18.9-8.8-25.7-5.8-6.9-13.6-10.3-23.8-10.3-10.3 0-17.7 3.3-23.9 10.3-5.6 6.5-8.6 15.6-8.6 25.7zm18.1-20.3c1.9-7.6 6.9-11.6 14.4-11.6 7.6 0 12.4 4 14.5 11.6 1.3 4.9 1.7 10.2 1.7 20.2s-.4 15.1-1.7 20.1c-2 7.5-7 11.6-14.5 11.6-7.6 0-12.4-4.1-14.4-11.6-1.5-4.9-1.9-10.1-1.9-20.1 0-10.1.5-15.2 1.9-20.2z"/><path d="m21.5 83.2h62.8l1.9-22.5h-3.7c-1.4 12.5-9.4 19.4-22.6 19.4h-9.7c-2.6 0-3.7-1.3-3.7-4.1v-29.2h5c5.1 0 9.7 1.2 11.7 3 2 1.9 3.5 5.5 3.5 8.8 0 .6 0 1.3-.1 1.9h3.6v-30.5l-3.6-.1v.8c0 8.4-5.3 13-15.1 13h-5v-23.8c0-2.6.8-3.4 3.2-3.4h9.7c7.7 0 11.6 1.2 15.8 4.6 3.1 2.5 5.5 6.3 6.1 9.7.2.9.3 2 .4 3.5h4.1l-1.6-20.9h-62.7v3.4h5.4c2.8 0 4.7 1.7 4.7 4.7v53.8c0 2.8-1.9 4.6-4.8 4.6h-5.3zm65.7-66.4h5.3c3 0 4.9 1.8 4.9 4.8v53.5c0 1.9-.4 2.9-1.2 3.7-.7.5-2.1 1-3.5 1.2h-5.6v3.3h60l1.4-27.5h-4c-2.3 15.5-9.8 24.4-20.8 24.4h-7.7c-2.6 0-3.8-1.3-3.8-4.2v-54.3c0-2.9 1.9-4.8 4.8-4.8h5.4v-3.4h-35.2c0-.1 0 3.3 0 3.3z"/><path d="m230.6 64.9c2.4-4.9 3.7-10.2 3.9-15.6h-37.5v15.9h33.4zm-37.7-36.6h-33.1c-2.9 5.2-4.5 11-4.9 16.9h38zm4.2 0v16.9h37.5c-.3-5.9-2-11.7-4.9-16.9zm-4.2 21h-38c.2 5.5 1.6 10.9 4.1 15.9h33.9zm0 20.1h-31.5c7 10.7 18.7 17.3 31.5 17.9zm4.2-45.3h29.9c-7-9.7-18-15.7-29.9-16.4zm0 45.3v17.9c12.6-.7 24.1-7.4 31-17.9zm-4.2-45.3v-16.4c-12.1.5-23.3 6.6-30.4 16.4z" fill="#4b7789"/></svg>