<?xml version="1.0" encoding="utf-8"?>
<!-- Generator: Adobe Illustrator 24.2.3, SVG Export Plug-In . SVG Version: 6.00 Build 0)  -->
<svg version="1.1" id="Capa_1" xmlns="http://www.w3.org/2000/svg" xmlns:xlink="http://www.w3.org/1999/xlink" x="0px" y="0px"
	 viewBox="0 0 350 92.6" style="enable-background:new 0 0 350 92.6;" xml:space="preserve">
<style type="text/css">
	.st0{fill:none;}
	.st1{fill:#171614;}
	.st2{fill:#117ECC;}
</style>
<path class="st0" d="M538.4-126.4v595.3"/>
<path class="st1" d="M158,56.7c-1.9,1.1-3.3,1.6-4.9,1.6c-2.9,0-5.1-2.2-5.1-5.9c0-4.6,2.5-7.1,10-7.6L158,56.7z M162.2,62.1h10.6
	V61l-4.3-2l0-24.7c0-7.6-4.3-11.5-11.6-11.5c-7.7,0-18.5,3.8-18.5,10.8c0,2.9,2,5.5,5.3,5.5c3,0,5.1-2.6,5.1-5.4
	c0-2.1-1.1-4.7-3.4-6.6c1.3-0.2,2.7-0.3,4-0.3c6.8,0,8.6,3.4,8.6,8.1v7.7c-12.5,0.1-20.9,4.2-20.9,11.9c0,5.2,3.8,8.8,9.9,8.8
	c4.6,0,8.2-2.2,11.1-5.3l0.4,0.2C158.5,60.5,160.1,62.1,162.2,62.1z"/>
<path class="st1" d="M249.5,11.3c0-3.7,2.9-6.7,6.5-6.7c3.6,0,6.5,3,6.5,6.7c0,3.7-2.9,6.7-6.5,6.7C252.4,18,249.5,15,249.5,11.3
	L249.5,11.3z"/>
<path class="st1" d="M341.4,34.3c0-6-2.7-11.6-10-11.6c-4.4,0-9.1,2.3-13.9,7l-0.3-0.2l0-5.5h-14.4v1.2l4.7,2.3V59l-4.3,2v1.2h18.2
	V61l-3.5-2V31.2c2.8-1.2,4.6-1.6,7.4-1.6c4.6,0,5.8,3.4,5.8,8.1V59l-4.1,2v1.2h18.8V61l-4.3-2V34.3z"/>
<polygon class="st1" points="251.2,27.5 251.2,59 246.7,61 246.7,62.2 265.9,62.2 265.9,61 261.6,59 261.6,24 246.5,24 246.5,25.2 
	251.2,27.5 "/>
<path class="st1" d="M284.3,4.6h11.6l-8.5,13.3h-6.6L284.3,4.6z M292.9,42.6c0,10.5-2.5,17.6-8.4,17.6s-8.4-7.1-8.4-17.6
	c0-10.5,2.5-17.6,8.4-17.6C290.4,25,292.9,32.1,292.9,42.6z M304,42.6c0-10.8-5.9-20.3-19.1-20.3c-13,0-20.1,10.2-20.1,20.3
	c0,10.8,5.9,20.4,19.1,20.4C297.1,63,304,52.7,304,42.6z"/>
<path class="st1" d="M246.9,50.3c0-7.3-5.7-9.9-11-12.1c-4.6-1.9-9-3.6-9-7.9c0-2.5,1.8-5.1,5-5.1c3.9,0,6,2.6,10.9,9.4l1.6-0.3
	l-0.2-10.4c-2.3-0.8-7-1.5-10.2-1.5c-8.8,0-15.2,5.5-15.2,12.1c0,7.4,5.7,10,11,12.3c4.6,1.9,9,3.6,9,7.8c0,3.4-2,5.7-5.2,5.7
	c-4.2,0-7.3-2.8-13.2-11.1l-1.6,0.2l0.2,11.5c3.8,1.5,7.9,2.3,12.8,2.3C239.5,63,246.9,58.1,246.9,50.3L246.9,50.3z"/>
<path class="st1" d="M212.9,34.3c0-6-2.7-11.6-10-11.6c-4.4,0-9.1,2.3-13.9,7l-0.3-0.2l0-5.5h-14.4v1.2l4.7,2.3V59l-4.3,2v1.2h18.2
	V61l-3.5-2V31.2c2.8-1.2,4.6-1.6,7.4-1.6c4.6,0,5.8,3.4,5.8,8.1V59l-3.5,2v1.2h18.2V61l-4.3-2L212.9,34.3L212.9,34.3z"/>
<polygon class="st1" points="76,38 69.7,26.9 73.3,25.2 73.3,24 53.6,24 53.6,25.2 57.4,26.9 69.4,45.1 58.3,58.7 54,61 54,62.2 
	67.5,62.2 67.5,61 64.1,59.1 71.4,48.1 78,59.2 74.1,61 74.1,62.2 94.1,62.2 94.1,61 90.2,59.2 77.8,40.9 88.5,27.5 93.1,25.2 
	93.1,24 79.5,24 79.5,25.2 82.6,27.1 "/>
<path class="st1" d="M50.6,4.6H4.2v1.5l7,2.2v50.2l-7,2.2v1.5h48.2l1.7-18.7l-1.7-0.4l-7.1,9.4c-2.9,3.8-5.8,5.7-10.7,6L23.8,59
	V35.3h3c5,0,6.9,1.8,9,7.4l1.1,2.8h1.8V21.2h-1.8l-1.1,3c-2,5.6-4,7.4-9,7.4h-3v-24l8,0.4c6.1,0.3,8.3,1.9,11.5,6.5l6.8,9.9l1.7-0.5
	C51.8,24,50.6,4.6,50.6,4.6z"/>
<polygon class="st2" points="112.4,70.4 112.4,77.6 117.1,79.6 117.1,81.7 345.7,81.8 345.7,70.4 "/>
<polygon class="st2" points="97.3,77.7 97.3,70.4 4.2,70.4 4.2,81.8 93.3,81.8 93.3,79.7 "/>
<path class="st1" d="M125.7,44.1c0,11.8-3.8,16.2-8,16.2c-3.6,0-5.7-1.5-7.7-4.6V29.4c2-0.5,3.8-0.8,5.5-0.8
	C122.1,28.7,125.7,33.4,125.7,44.1z M99.6,78.7l-4.3,2v1.1h19.8v-1.1l-5.1-2V62.5c1.7,0.3,3.4,0.5,5.1,0.5
	c13.8,0,21.8-10.2,21.8-21.5c0-11.6-6.5-19.2-14.4-19.2c-4.8,0-9.6,2.9-12.6,5.8l-0.3-0.2l0-3.9H95v1.2l4.6,2.3
	C99.6,27.5,99.6,78.7,99.6,78.7z"/>
</svg>
