<?xml version="1.0" encoding="utf-8"?>
<!-- Generator: Adobe Illustrator 24.2.3, SVG Export Plug-In . SVG Version: 6.00 Build 0)  -->
<svg version="1.1" id="Capa_1" xmlns="http://www.w3.org/2000/svg" xmlns:xlink="http://www.w3.org/1999/xlink" x="0px" y="0px"
	 viewBox="0 0 652 184" style="enable-background:new 0 0 652 184;" xml:space="preserve">
<path d="M444.2,169.3l-32-127.7c-1.7-4.3-2.7-6.9-5.8-10.3c-3.6-3.9-6-6.2-10.9-8.2c-1,0-2-0.6-2-1.6c0-1.4,1.3-3.4,2.5-2.6h55.5
	c-0.8,0.1,1.4,0.6,1.5,1.4s-0.8,1.3-1.6,1.2c-3.3-0.1-5.4,0-8.5,0.7c-2.7,0.6-4.4,1.3-6.3,3.4c-2.5,2.6-3.2,5.3-2.3,8.8l27.2,106.3
	l28-100.8c1.3-4,1.1-7.1-1-10.7c-1.8-3-3.9-4.2-7.1-5.6c-1.3-0.5-2.2-0.8-3.6-0.8c-1.3,0-2.4-0.5-2.7-1.7c-0.3-1.1,0.9-2.1,2-2.2
	h39.6c-0.6-0.9,1.2,1.3,1.5,2.3c0.2,1-1,1.8-2,1.6c-5.4,0.3-7.9,0.8-13.1,4.4c-4.4,3-6.5,5.4-9.2,10c-1.3,2.2-1.6,3.6-2.5,5.9
	l-27.3,100c-0.7,2.5-1.2,4.2-0.3,6.6c1.2,2.9,3.5,5,7.6,5.9v0.6c-6.4,0.7-10,2.2-15.8,5.2c-4.6,2.4-7,4.4-10.7,8L444.2,169.3z
	 M567.4,89.5l-13.1-44.8l-12.4,44.9L567.4,89.5z M568.1,92.9l-27.2-0.1l-13.2,47.5c-0.9,4.2-1,7.1,1.2,10.7c1.9,3,6.2,5.6,10.9,6.2
	c1.3,0.2,2.4,0.5,2.7,1.7c0.2,1-0.7,1.8-1.7,1.9l-41.6-0.1c-0.8,0.1-1.5-0.7-1.4-1.5c0.1-1,1-1.3,2-1.7c5.4-0.5,7.9-1,13-4.6
	c4.3-3.1,6.8-5.3,9.1-10.1c1.1-2.3,1.9-3.5,2.4-6l27.3-93.1c0.2-2.2,1.2-4.3,0.1-6.6c-1.2-2.9-1.2-5.1-5.3-5.8v-0.6
	c10.4-1.5,19.3-6.2,25.6-13.7l0.7,0.1L605,137.4c1.4,4.4,3.2,7.4,6,10.2c4.5,4.5,7.7,6.7,13.7,8.6c1-0.2,1.8,2.5,2,1.5
	c0.3-1.5-0.9,3.1-2.5,3.1h-57.8c-0.9,0.2-2.1-0.6-1.9-1.5c0.2-0.8,0.8-1.2,1.6-1.2c3.3,0,5.4,0.1,8.5-0.8c2.1-0.6,4.4-1.4,6.3-3.5
	c3-3.3,3.2-4.8,2.2-8.8L568.1,92.9z M122.4,18.9c2.6-0.3,4.1-1.1,6.2-2.6c1.7-1.2,2.5-2.2,3.7-4c3,7,4.5,11,7.5,18
	c2.8,6.6,3.8,10.6,6.7,17.2c-0.2,0.9,0,1.8-0.8,2.3s-2.6,0-2.3-0.9c-4.7-8.6-8.2-13.7-16.5-19.1c-4.9-3.2-8-4.9-13.6-6.2
	c-4.2-1-5.7-1-9.4,0.5c-6.1,2.4-6.2,9.8-6.2,9.8v109.9c0,3.2,0.7,5,2.4,7.5c2.5,3.7,5.2,5.9,9.7,6.2c-1.6-0.6,2.7,0.4,4.4,0.5
	c1.2,0.1,1.9,0.5,3.1,0.4c1.1,0.1,1.9,0.3,1.9,1.1s-0.7,1.4-1.5,1.3H54.9c-0.8,0.1-1.5-0.5-1.5-1.3s0.9-1.1,1.9-1.1
	c1.2,0.1,4.3-0.5,3.1-0.4c-1.7,0.1,2.8,0.2,4.4-0.5c4.4-0.7,7.2-2.4,9.7-6.2c1.7-2.6,2.5-4.9,2.6-8L75,33.9c0,0-0.1-7.4-6.2-9.8
	c-3.7-1.5-5.1-1.5-9.3-0.5c-5.6,1.3-8.7,3.1-13.6,6.2c-8.3,5.3-11.8,10.4-16.5,19.1c0.5,0.8-1.4,0.6-2.3,0.9s-0.4-1.4-0.8-2.3
	c2.9-6.6,3.8-10.6,6.7-17.2c3-7,4.6-11,7.5-18c1.2,1.8,2,2.8,3.7,4c2.1,1.5,3.7,2.6,6.2,2.6H122.4z M153.6,159.9
	c-0.3-0.5,1.7-0.7,1.1-0.8c1.6,0.1,5.7-0.4,4.1-0.3c-1.7,0.2,2.7-0.1,4.4-0.7c4-1.3,6.5-2.3,9.2-5.5c3-3.5,4.4-7.3,4.4-11.1
	l-0.1-107.1c0-3.8-1.5-5.4-3.8-7.9c-1.9-2.1-3.2-3.3-5.9-4.2c-1.1-0.2-1.7-1.8-1-2.7c0.5-0.6,1.1-0.7,1.8-0.8h67.7
	c3,0,5.1-1.2,8.2-2.4c3.6-1.4,5.2-3,8.2-5.4c2.6,6.1,4.4,9.3,7,15.4c3.4,7.6,5.4,11.7,8.7,19.3c-0.4,0.8,0,1.7-0.7,2.1
	c-0.8,0.5-2.6-0.1-2.3-1c-3.2-4.5-5.3-6.9-9.4-10.6c-6.7-6-11.2-9.3-19.9-11.7c-6.2-1.7-10-2.5-17.6-2.5c-4.7,0-7.8,1.3-11.1,4.6
	c-3.5,3.5-5.2,6.7-5.2,11.4v32.4H225c4.2,0,6.7-2,9.7-5.1c2.6-2.6,3.7-4.6,4.9-8c1-2.9,1.1-4.7,1-7.8c-0.4-0.9,0.7-2.3,1.7-2
	c0.8,0.2,1.5,0.9,1.5,1.6v47.5c0,1.5-1.1,1.8-2.1,1.7c-0.8-0.1-1-1-1.1-1.8l-0.6-7.3c-1.1-4.9-2.4-8.2-6.5-11.1
	c-3.5-2.5-6.1-3.7-10.4-3.7h-21.8v65.4c0,5.1,1.9,7.8,5.5,11c4.5,4,8.4,5,14.4,5.9c7.6,1.1,12.1-0.9,19.3-3.4
	c9-3.1,14.3-6.2,20.3-13.5c3.4-4.2,5.4-6.8,7.3-11.8c-0.1-1,1.1-1.4,2.1-1.6c0.9-0.1,0.6,1.3,0.8,2.3L251.9,172
	c-2.3-3.9-4.3-5.9-8.2-8.2c-4-2.3-6.8-2.9-11.4-3h-77.7C154,161,153.9,160.3,153.6,159.9L153.6,159.9z M384.6,169.9
	c5.1-9.5,7.6-15.1,11.8-25.1c2.9-6.7,4.9-10.4,7.3-17.3c0.9-1.7,1.1-3.8-0.2-3.5c-1.5,0.3-3.5,0.6-3.3,2.1c-4,7.7-7,11.9-13.5,17.7
	c-5.8,5.2-9.5,8.4-17,10.4c-7,1.9-10.2,3-16.5,2.6c-4.6-0.3-7.4-1.4-11.1-4.3c-3.2-2.4-5.7-4.5-5.7-8.5V38.5c0-3.9-0.3-6.3,1.4-9.7
	c1.5-3,3.5-4.3,6.6-5.7c1.2-0.5,2-0.4,3.3-0.6c1.3-0.3,2.3,0.1,3.3-0.7c0.6-0.4,1.3-0.2,1.3-1.3c0-1-1.3-1.5-2.2-1.5
	c0,0-36.1-0.1-54.1-0.1c-0.9-0.5-2,0.6-2.1,1.7c-0.1,0.7,0.6,1.2,1.3,1.3c2-0.3,3.2,0.1,5.2,0.4c2.9,0.4,4.6,1.1,7,2.9
	c3.2,2.4,4.8,5.2,4.8,9.1v107c0,4.2-0.3,7-3.1,10.1c-2,2.3-3.7,3.2-6.6,4.2c-1.5,0.5-2.3,1.2-3.9,1.3c-1.1,0.1-1.8-0.1-2.8,0.3
	c-0.8,0.3-1.2,0.9-1.3,1.8c-0.2,1.1,1.2,1.9,2.4,1.8H358c4.9-0.8,7.8,0.1,12.7,0.5c2.6,0.2,4.1,0.5,6.6,1.2c1.9,0.5,3.1,0.8,4.5,2.2
	C383.3,166.4,384,167.7,384.6,169.9L384.6,169.9z"/>
</svg>
